# xmcd
# Track frame offsets:
# 180
# 11187
# 21998
# 33642
# 44092
# 55528
# 66738
# 77411
# 87554
# 98768
# 108400
# 120137
# 129767
# 140056
# 152451
# 165387
# 175093
# 184236
# 196198
# 208019
# 216675
# 228578
# 240315
# 252124
# 264381
# 274324
# 283355
# 294572
# 304479
# 316611
#
# Disc length: 4381 seconds
# Revision: 0
# Processed by: cddbd v1.4PL0 Copyright (c) Steve Scherf et al.
# Submitted via: VisiTrax 2.9.5.180 - For more info visit www.synapsa.com
#
DISCID=b8111b1e
DTITLE=Ernie Ashworth - The early ears
DYEAR=2001
DGENRE=
TTITLE0=Drive the blues away
TTITLE1=Honey don't you miss me
TTITLE2=Why don't you leave us alone
TTITLE3=Exept
TTITLE4=My heart says
TTITLE5=Too many times
TTITLE6=Then you're really making love
TTITLE7=The nearest thing to heaven
TTITLE8=Down with the blues
TTITLE9=Let's keep steady company
TTITLE10=Each moment
TTITLE11=Night time is cry time
TTITLE12=You can't pick a rose in december
TTITLE13=ou'll hear my heart break
TTITLE14=Forever gone
TTITLE15=Life of the party
TTITLE16=Everbody but me
TTITLE17=(Ijust spent) Another sleepless night
TTITLE18=I take the chance
TTITLE19=King of the blues
TTITLE20=Talk back trembling lips
TTITLE21=That's how much I care
TTITLE22=A week in the country
TTITLE23=Heartbreak avenue
TTITLE24=Crazy me, foolish you
TTITLE25=Love has come my way
TTITLE26=My heart would know
TTITLE27=Just one time
TTITLE28=I love to dance with Annie
TTITLE29=The DJ cried
EXTD=
EXTT0=
EXTT1=
EXTT2=
EXTT3=
EXTT4=
EXTT5=
EXTT6=
EXTT7=
EXTT8=
EXTT9=
EXTT10=
EXTT11=
EXTT12=
EXTT13=
EXTT14=
EXTT15=
EXTT16=
EXTT17=
EXTT18=
EXTT19=
EXTT20=
EXTT21=
EXTT22=
EXTT23=
EXTT24=
EXTT25=
EXTT26=
EXTT27=
EXTT28=
EXTT29=
PLAYORDER=
